<svg width="206" height="240" viewBox="0 0 206 240" fill="none" xmlns="http://www.w3.org/2000/svg">
<path d="M25.5674 201.489C19.1717 194.563 6.4253 180.225 5.46759 179.051L80.6447 94.8299L79.9767 94.453L70.8507 104.539L63.02 99.0637L54.509 108.528L46.0103 102.676L28.2517 82.1749L63.572 42.8356L71.5946 48.5955L80.7669 38.2712L88.3595 43.7005L97.631 34.1368L104.701 39.7115L113.781 29.8634L121.565 35.577L130.691 25.4909L138.522 30.9664L147.126 21.0257L170.188 37.1216L188.046 58.3829L180.427 65.7971L187.081 73.5146L179.562 81.6894L186.262 89.1688L178.697 97.5817L184.729 104.684L177.778 112.475L184.24 119.909L177.005 127.891L183.467 135.325L148.147 174.664L140.409 168.712L122.558 148.688L129.74 139.706L123.139 132.987L130.42 124.766L129.752 124.389L47.1482 216.309L25.5674 201.489Z" fill="#F086E0"/>
<path d="M188.115 58.4099L179.601 66.6858L161.826 46.6841L170.415 37.3431L188.115 58.4099Z" fill="#CF2EB0" stroke="#9C008A" stroke-width="0.242545"/>
<path d="M187.152 73.5564L179.464 81.9838L160.77 62.2962L169.122 53.0265L187.152 73.5564Z" fill="#C925A8" stroke="#9C008A" stroke-width="0.242545"/>
<path d="M186.426 89.2282L178.737 97.6557L160.043 77.968L168.396 68.6984L186.426 89.2282Z" fill="#D030B6" stroke="#9C008A" stroke-width="0.242545"/>
<path d="M184.889 104.74L177.2 113.167L158.506 93.4798L166.859 84.2101L184.889 104.74Z" fill="#D42FB9" stroke="#9C008A" stroke-width="0.242545"/>
<path d="M184.401 119.967L176.712 128.394L158.018 108.706L166.37 99.4367L184.401 119.967Z" fill="#E13ACF" stroke="#9C008A" stroke-width="0.242545"/>
<path d="M183.54 135.366L174.624 145.033L156.642 124.149L165.405 114.57L183.54 135.366Z" fill="#E13ACF" stroke="#9C008A" stroke-width="0.242545"/>
<path d="M174.788 144.782L165.878 154.75L147.898 133.868L156.662 124.288L174.788 144.782Z" fill="#E13ACF" stroke="#9C008A" stroke-width="0.242545"/>
<path d="M165.948 154.673L156.986 164.579L138.722 143.885L147.872 133.949L165.948 154.673Z" fill="#E13ACF" stroke="#9C008A" stroke-width="0.242545"/>
<path d="M138.648 143.862L156.987 164.765L148.146 174.659L129.765 153.543L138.648 143.862Z" fill="#E13ACF"/>
<path d="M94.7045 64.8737L101.116 72.1135L92.5568 81.8183L86.1027 74.3654L94.7045 64.8737Z" fill="#E13ACF"/>
<path d="M78.3585 68.4336L90.7581 83.447L82.1986 93.1517L69.5698 79.3266L78.3585 68.4336Z" fill="#E13ACF"/>
<path d="M61.5479 73.5742L80.0085 94.2836L70.8477 104.539L52.6107 83.9403L61.5479 73.5742Z" fill="#E13ACF"/>
<path d="M44.8663 77.4922L63.0589 98.8186L54.5479 108.283L36.0772 87.6466L44.8663 77.4922Z" fill="#E13ACF"/>
<path d="M122.791 148.726L129.762 153.54L165.558 114.293L157.727 108.818L166.093 98.831L158.738 93.4481L167.534 83.7918L159.795 77.8402L168.115 68.0913L160.522 62.6621L169.317 53.0059L161.579 47.0542L170.136 37.3517L147.167 20.7796L138.517 30.9583L130.686 25.4829L121.56 35.569L113.776 29.8554L104.98 39.5117L97.8639 34.175L88.3079 43.9305L81.046 38.0714L71.5893 48.5875L63.5668 42.8276L28.2465 82.1669L36.1235 87.4043L44.9651 77.51L52.657 83.6997L61.5449 73.5673L69.66 78.851L78.6405 68.2424L86.0943 74.3859L94.6516 64.6833L102.72 70.2051L5.50861 178.805L28.9082 195.707L125.974 86.5853L133.805 92.0608L124.964 101.955L133.032 107.477L124.144 117.609L131.929 123.323L123.134 132.979L130.964 138.455L122.791 148.726Z" fill="#F8A7EB" stroke="#F8A7EB" stroke-width="0.48509"/>
<path d="M47.1456 216.298L28.9109 195.705L125.977 86.5829L132.009 93.6854L124.728 101.906L131.236 109.102L124.147 117.607L129.842 123.903L47.1456 216.298Z" fill="#E036CA" stroke="#E036CA" stroke-width="0.48509"/>
<path d="M14.0186 169.344L37.7026 186.055L55.6992 206.602" stroke="#9C008A" stroke-width="0.242545"/>
<path d="M23.0538 159.727L46.7378 176.437L64.7344 196.984" stroke="#9C008A" stroke-width="0.242545"/>
<path d="M31.4679 149.508L55.1519 166.219L73.1485 186.766" stroke="#9C008A" stroke-width="0.242545"/>
<path d="M40.8272 139.465L64.5112 156.176L82.5078 176.723" stroke="#9C008A" stroke-width="0.242545"/>
<path d="M49.6202 129.809L73.3042 146.519L91.3008 167.066" stroke="#9C008A" stroke-width="0.242545"/>
<path d="M58.5128 119.676L82.1968 136.387L100.193 156.934" stroke="#9C008A" stroke-width="0.242545"/>
<path d="M67.3116 110.02L90.9956 126.73L108.992 147.277" stroke="#9C008A" stroke-width="0.242545"/>
<path d="M76.1964 99.8867L99.8804 116.598L117.877 137.145" stroke="#9C008A" stroke-width="0.242545"/>
<path d="M84.9933 90.2305L108.677 106.941L126.674 127.488" stroke="#9C008A" stroke-width="0.242545"/>
<path d="M93.8839 80.1016L117.568 96.8124L129.678 110.779" stroke="#9C008A" stroke-width="0.242545"/>
<path d="M71.5909 48.5938L157.967 108.87" stroke="#9C008A" stroke-width="0.242545"/>
<path d="M88.0655 43.8828L158.734 93.4467" stroke="#9C008A" stroke-width="0.242545"/>
<path d="M104.316 39.1406L159.799 77.846" stroke="#9C008A" stroke-width="0.242545"/>
<path d="M121.796 35.6172L160.52 62.664" stroke="#9C008A" stroke-width="0.242545"/>
<path d="M138.519 30.957L161.581 47.0529" stroke="#9C008A" stroke-width="0.242545"/>
<path d="M54.7237 52.7266L78.5928 68.4851" stroke="#9C008A" stroke-width="0.242545"/>
<path d="M133.034 107.48L156.48 124.145" stroke="#9C008A" stroke-width="0.242545"/>
<path d="M45.9327 62.3789L61.7397 73.8524L69.5704 79.3279" stroke="#9C008A" stroke-width="0.242545"/>
<path d="M131.788 123.363L147.784 134.001" stroke="#9C008A" stroke-width="0.242545"/>
<path d="M37.1319 72.0352L44.9395 77.6297" stroke="#9C008A" stroke-width="0.242545"/>
<path d="M131.009 138.223L138.816 143.817" stroke="#9C008A" stroke-width="0.242545"/>
<path d="M44.9659 77.5117L63.2536 99.1037" stroke="#9C008A" stroke-width="0.242545"/>
<path d="M61.5011 73.8125L79.9739 94.4521" stroke="#9C008A" stroke-width="0.242545"/>
<path d="M78.4015 68.1953L90.9945 83.4916" stroke="#9C008A" stroke-width="0.242545"/>
<path d="M94.6476 64.6836L101.109 72.1168" stroke="#9C008A" stroke-width="0.242545"/>
<path d="M162.546 31.9287L21.1258 190" stroke="#DD7FCD" stroke-width="0.242545"/>
<path d="M125.189 102.246L34.9399 202.81" stroke="#F54FE1" stroke-width="0.242545"/>
<path d="M124.62 117.706L41.2096 209.962" stroke="#F54FE1" stroke-width="0.242545"/>
<path d="M161.53 47.2913L126.504 86.4408" stroke="#DD7FCD" stroke-width="0.242545"/>
<path d="M138.564 30.9554L102.672 70.4467" stroke="#DD7FCD" stroke-width="0.242545"/>
<path d="M160.797 62.4708L134.044 92.1096" stroke="#DD7FCD" stroke-width="0.242545"/>
<path d="M159.832 77.5958L133.079 107.235" stroke="#DD7FCD" stroke-width="0.242545"/>
<path d="M158.775 93.213L131.93 123.328" stroke="#DD7FCD" stroke-width="0.242545"/>
<path d="M121.336 35.7099L93.9696 65.3518" stroke="#DD7FCD" stroke-width="0.242545"/>
<path d="M105.725 38.7881L78.3582 68.4299" stroke="#DD7FCD" stroke-width="0.242545"/>
<path d="M88.4436 43.8193L61.077 73.4612" stroke="#DD7FCD" stroke-width="0.242545"/>
<path d="M51.2437 84.6646L42.1576 94.506" stroke="#D921C5" stroke-width="0.242545"/>
<path d="M67.6636 81.5493L59.1221 91.1341" stroke="#D921C5" stroke-width="0.242545"/>
<path d="M57.7261 91.9771L48.6401 101.819" stroke="#D921C5" stroke-width="0.242545"/>
<path d="M74.1464 88.8576L65.5808 98.5632" stroke="#D921C5" stroke-width="0.242545"/>
<path d="M71.8127 48.0068L44.4461 77.6487" stroke="#DD7FCD" stroke-width="0.242545"/>
<path d="M157.72 108.815L130.968 138.453" stroke="#DD7FCD" stroke-width="0.242545"/>
<path d="M154.761 26.2099L13.3406 184.281" stroke="#DD7FCD" stroke-width="0.242545"/>
</svg>
