<svg width="92" height="85" viewBox="0 0 92 85" fill="none" xmlns="http://www.w3.org/2000/svg">
<path d="M9.61467 50.6181C-2.2288 72.3111 2.83566 73.2092 22.4163 73.2092C28.439 86.0111 42.7484 88.2702 52.5378 79.9866C62.3257 87.5172 78.1395 79.9866 75.129 66.4319C88.682 66.4319 100.731 47.6061 83.4124 34.0512C90.1881 25.015 85.6699 8.44815 67.5986 12.2131C63.8318 1.6708 56.0447 -4.34587 42.7484 4.68274C31.4511 -4.34569 14.8843 -0.576658 17.1451 18.2374C-1.68242 18.2374 -6.20026 38.5695 9.61467 50.6181Z" fill="#3574FF"/>
<path d="M38.2908 35.0542C38.7407 33.6694 40.228 32.9116 41.6128 33.3616L48.1083 35.4721C49.4931 35.922 50.2509 37.4093 49.801 38.7941C49.351 40.1789 47.8637 40.9367 46.4789 40.4867L39.9834 38.3762C38.5987 37.9263 37.8409 36.439 38.2908 35.0542Z" fill="#F4F4F4"/>
<path d="M56.4046 40.9177C56.7486 39.7184 57.9996 39.0249 59.1989 39.3688L66.4894 41.4593C67.6888 41.8032 68.3822 43.0543 68.0383 44.2536C67.6944 45.4529 66.4434 46.1464 65.244 45.8025L57.9535 43.712C56.7542 43.3681 56.0607 42.117 56.4046 40.9177Z" fill="#F4F4F4"/>
</svg>
