<svg width="145" height="150" viewBox="0 0 145 150" fill="none" xmlns="http://www.w3.org/2000/svg">
<path d="M22.5521 21.5222L45 58L3.19956 55.2133C1.46801 55.0979 0 56.4713 0 58.2067V89.5C0 91.1569 1.34315 92.5 3 92.5H42.5L22.3279 130.499C21.5824 131.903 22.0618 133.645 23.4207 134.47L46.1789 148.287C47.6915 149.206 49.6663 148.622 50.4367 147.029L71 104.5L93.9901 147.196C94.809 148.717 96.7397 149.234 98.209 148.325L120.56 134.509C121.925 133.665 122.384 131.896 121.602 130.495L99 90H142C143.657 90 145 88.6569 145 87V61C145 59.3431 143.657 58 142 58H99L121.436 21.541C122.301 20.1354 121.868 18.2951 120.468 17.4224L95.1711 1.66398C93.717 0.758144 91.8009 1.25188 90.9656 2.74762L71 38.5L52.5065 2.90003C51.6961 1.34008 49.7242 0.807981 48.2391 1.74854L23.5019 17.4154C22.115 18.2939 21.6917 20.124 22.5521 21.5222Z" fill="#074A3B"/>
<mask id="mask0_1278_3553" style="mask-type:alpha" maskUnits="userSpaceOnUse" x="0" y="1" width="145" height="148">
<path d="M22.5521 21.5222L45 58L3.19956 55.2133C1.46801 55.0979 0 56.4713 0 58.2067V89.5C0 91.1569 1.34315 92.5 3 92.5H42.5L22.3279 130.499C21.5824 131.903 22.0618 133.645 23.4207 134.47L46.1789 148.287C47.6915 149.206 49.6663 148.622 50.4367 147.029L71 104.5L93.9901 147.196C94.809 148.717 96.7397 149.234 98.209 148.325L120.56 134.509C121.925 133.665 122.384 131.896 121.602 130.495L99 90H142C143.657 90 145 88.6569 145 87V61C145 59.3431 143.657 58 142 58H99L121.436 21.541C122.301 20.1354 121.868 18.2951 120.468 17.4224L95.1711 1.66398C93.717 0.758144 91.8009 1.25188 90.9656 2.74762L71 38.5L52.5065 2.90003C51.6961 1.34008 49.7242 0.807981 48.2391 1.74854L23.5019 17.4154C22.115 18.2939 21.6917 20.124 22.5521 21.5222Z" fill="#074A3B"/>
</mask>
<g mask="url(#mask0_1278_3553)">
<path d="M51.5 -2.5C51.5 12.5 36 29.1 26 33.5M70.5 30C69.5 42 57.5 66 34 80C12.3261 92.9121 -1 60 -3 43M25 120.5C27.5 121.333 34.6 119.8 43 107C53.5 91 84 54 86.5 37C88.5 23.4 89.3333 7 89.5 0.5M100.502 2C100.501 12.5 90.4298 30.5 93.0026 48.5C95.0037 62.4998 113.494 86.5 114.494 93C115.294 98.2 114.161 97.5 114.494 99M72.5 109.999C73.5 106.999 79.5 90.9995 87 95.4995C94.5 99.9995 90.5 141.5 89.5 144M30.5 148.5C40.8333 142 63.4 122.2 71 95.0005C78.6 67.8005 88.5 78.0005 92.5 86.5005C97.1667 95.8337 103.9 121.1 93.5 147.5M13 132.997C21 135.664 43.9 129.8 55.5 107C70 78.5 81 60.4972 88.5 63.4972C96 66.4972 109.844 91.4915 111 109.992C111.5 117.991 104 151.991 101 153.491M112.5 12.5C107.167 19.6667 98.602 39.1993 107 60C110.634 69 118.001 72.5 127.001 96M119.5 53.5C121.167 62 127.1 82.4 137.5 96M137.5 53.5C136.833 60.6667 138 78.8 148 94M74.5 22C79.5 42.5 55.5 80.5 39 94M-2 62.5C-0.166667 70.5 6 88.4 16 96M63.5004 20C67.0001 39.5 28.1 69.6 14.5 64C0.9 58.4 2.16708 47.5 3.00041 43M58 7.5C58 16.5 45.5 42 33.5 43M34 8.5C31.5 12.6667 25.7 21.4 22.5 23" stroke="#21F576" stroke-width="3"/>
</g>
</svg>
